<svg width="146" height="41" viewBox="0 0 146 41" fill="none" xmlns="http://www.w3.org/2000/svg">
<g clip-path="url(#clip0_2052_212)">
<path d="M31.6348 10.3123H38.8004V13.7301H38.9088C40.4825 10.8551 43.1397 9.55078 46.3438 9.55078C51.0639 9.55078 53.7758 12.047 53.7758 17.8557V39.5087H46.2912V19.3768C46.2912 16.3924 45.3099 15.3058 43.0851 15.3058C40.4278 15.3058 39.1235 16.9322 39.1235 20.1363V39.5087H31.6348V10.3123Z" fill="#F7F6F2"/>
<path fill-rule="evenodd" clip-rule="evenodd" d="M59.3601 15.4119H55.5605V10.311H59.3601V7.00061C59.3601 1.73572 62.3465 0 67.1749 0C68.4792 0 69.8372 0.0536499 71.1932 0.162048V5.47955C70.9218 5.42792 70.7061 5.42792 70.4316 5.42792H69.7268C67.6103 5.42792 66.8498 6.07806 66.8498 7.75909V10.311H71.1932V15.4119H66.8498V39.5074H59.3601V15.4119ZM74.1228 0.324036H81.6136V6.72717H74.1228V0.324036ZM74.1228 10.311H81.6136V39.5114H74.1228V10.311Z" fill="#F7F6F2"/>
<path fill-rule="evenodd" clip-rule="evenodd" d="M112.209 0.324219H119.701V6.72736H112.209V0.324219ZM112.209 10.3112H119.701V39.5116H112.209V10.3112Z" fill="#F7F6F2"/>
<path fill-rule="evenodd" clip-rule="evenodd" d="M85.8398 0.761719H93.3296V13.0272H93.442C95.0137 10.6889 96.9124 9.55176 99.7368 9.55176C105.872 9.55176 108.69 14.0571 108.69 24.9119C108.69 35.7678 105.872 40.2711 99.7368 40.2711C96.7504 40.2711 94.7959 39.1845 93.1149 36.4199H93.0065V39.5086H85.8398V0.761719ZM97.2922 34.5192C100.55 34.5192 101.203 31.2614 101.203 24.9119C101.203 18.5625 100.55 15.3047 97.2922 15.3047C93.9807 15.3047 93.3296 18.5625 93.3296 24.9119C93.3296 31.2614 93.9807 34.5192 97.2922 34.5192Z" fill="#F7F6F2"/>
<path fill-rule="evenodd" clip-rule="evenodd" d="M123.876 19.2674V18.5616C123.876 11.8303 128.488 9.55078 134.133 9.55078C143.031 9.55078 144.714 13.244 144.714 18.5079V33.8651C144.714 36.6327 144.932 37.7739 145.637 39.5087H138.475C137.986 38.5872 137.769 37.5056 137.551 36.4727H137.441C135.708 39.5087 133.644 40.2712 130.007 40.2712C124.796 40.2712 122.953 35.8185 122.953 31.9116C122.953 26.3773 125.176 24.2072 130.333 22.7965L134.565 21.6533C136.79 21.0598 137.551 20.1909 137.551 18.2354C137.551 16.0096 136.629 14.6546 134.079 14.6546C131.744 14.6546 130.605 16.12 130.605 18.4532V19.2674H123.876ZM137.551 24.911C136.521 25.7272 135.272 26.1606 134.348 26.3773C131.309 27.0265 130.114 28.4928 130.114 31.0984C130.114 33.3273 130.929 35.1714 132.936 35.1714C134.944 35.1714 137.551 33.9208 137.551 30.665V24.911Z" fill="#F7F6F2"/>
<path fill-rule="evenodd" clip-rule="evenodd" d="M10.2564 0.761719H19.9162L30.1756 39.5086H22.0327L20.2423 31.3161H9.93228L8.14189 39.5086H0L10.2564 0.761719ZM11.2862 24.9109H18.8884L15.1405 7.4899H15.0341L11.2862 24.9109Z" fill="#F7F6F2"/>
</g>
<defs>
<clipPath id="clip0_2052_212">
<rect width="146" height="41" fill="white"/>
</clipPath>
</defs>
</svg>
