<svg width="173" height="51" viewBox="0 0 173 51" fill="none" xmlns="http://www.w3.org/2000/svg">
<g clip-path="url(#clip0_2052_242)">
<path d="M91.8105 16.1L106.011 32.75H112.811V9.58L105.061 1.83V17.94L104.841 17.69L89.9205 1H84.0605V26.66L91.8105 34.41V16.1Z" fill="#F7F6F2"/>
<path d="M144.021 5.34875C140.951 2.35875 136.851 0.71875 132.441 0.71875C132.391 0.71875 132.331 0.71875 132.281 0.71875C127.821 0.75875 123.681 2.49875 120.621 5.61875C117.591 8.71875 115.941 12.8488 115.991 17.2488C116.041 21.7588 117.801 25.9188 120.951 28.9788C123.971 31.9188 127.971 33.5287 132.231 33.5287C132.331 33.5287 132.421 33.5287 132.521 33.5287C134.961 33.4887 137.301 32.9588 139.471 31.9688L133.671 26.1688C133.241 26.2288 132.871 26.2588 132.511 26.2588C132.471 26.2588 132.441 26.2588 132.401 26.2588C130.011 26.2588 127.821 25.3888 126.231 23.8088C124.541 22.1287 123.601 19.7488 123.611 17.1188C123.621 11.8388 127.231 8.14875 132.411 8.14875C137.261 8.14875 140.761 11.3887 141.171 16.2287L141.191 16.2487L147.861 22.9188C148.561 20.9988 148.911 18.9788 148.891 16.9088C148.851 12.4788 147.121 8.37875 144.021 5.34875Z" fill="#F7F6F2"/>
<path d="M161.161 33.1887C161.291 33.1887 161.431 33.1987 161.561 33.1987C165.871 33.1987 168.391 31.2787 169.771 29.6488C172.391 26.5387 172.281 22.5988 172.281 22.4288V22.4188C172.281 22.3588 171.781 16.3487 165.821 14.2787C165.311 14.0987 164.711 13.9388 164.071 13.7587C161.651 13.0988 158.631 12.2787 157.441 9.82875C156.201 7.30875 158.881 5.58875 159.751 5.10875L155.591 0.96875C152.691 2.25875 150.981 4.75875 150.651 8.19875C150.641 8.25875 150.641 8.30875 150.631 8.34875C150.411 10.0087 151.021 14.8288 156.371 17.0988C157.531 17.5888 158.641 17.9287 159.611 18.2188C160.091 18.3587 160.541 18.4988 160.941 18.6388C164.161 19.7488 165.571 20.5188 165.481 23.2488C165.421 25.0988 163.711 26.8988 161.741 27.1888C159.911 27.4488 157.441 26.8788 156.291 25.0088H149.701C150.871 30.3288 154.631 33.0087 161.161 33.1887Z" fill="#F7F6F2"/>
<path d="M51.7105 1H35.7005L28.0605 9.49V32.75H36.8105V9.75H42.9605L51.7105 1Z" fill="#F7F6F2"/>
<path d="M75.742 5.27844C72.672 2.28844 68.572 0.648438 64.162 0.648438C64.112 0.648438 64.052 0.648438 64.002 0.648438C59.542 0.688437 55.402 2.42844 52.342 5.54844C49.312 8.64844 47.662 12.7784 47.712 17.1784C47.762 21.6884 49.522 25.8484 52.672 28.9084C55.692 31.8484 59.692 33.4584 63.942 33.4584C64.042 33.4584 64.132 33.4584 64.232 33.4584C66.672 33.4184 69.012 32.8884 71.182 31.8984L65.382 26.0984C64.952 26.1584 64.582 26.1884 64.222 26.1884C64.182 26.1884 64.152 26.1884 64.122 26.1884C61.732 26.1884 59.542 25.3184 57.952 23.7384C56.252 22.0584 55.322 19.6784 55.332 17.0484C55.342 11.7684 58.952 8.07844 64.132 8.07844H64.142C68.982 8.07844 72.492 11.3184 72.892 16.1584L72.912 16.1784L79.582 22.8484C80.282 20.9284 80.632 18.9084 80.612 16.8384C80.582 12.3984 78.852 8.29844 75.742 5.27844Z" fill="#F7F6F2"/>
<path d="M16.6811 25.8C16.6411 25.8 16.6111 25.8 16.5711 25.8C14.1611 25.8 11.9511 24.92 10.3411 23.33C8.6311 21.63 7.6911 19.23 7.6911 16.57C7.7011 11.24 11.3511 7.51 16.5811 7.51H16.5911C17.2511 7.51 17.9211 7.58 18.5811 7.71L24.4111 1.88C22.0511 0.65 19.3511 0 16.6111 0C16.5611 0 16.5011 0 16.4511 0C11.9511 0.04 7.7711 1.8 4.6811 4.95C1.6111 8.08 -0.0489026 12.25 0.00109743 16.7C0.0510974 21.25 1.8311 25.46 5.0111 28.55C8.0611 31.52 12.1011 33.14 16.4011 33.14C16.5011 33.14 16.6011 33.14 16.6911 33.14C19.4411 33.09 22.0311 32.46 24.3911 31.24L18.6911 25.54C18.0311 25.71 17.3511 25.79 16.6811 25.8Z" fill="#F7F6F2"/>
<path d="M20.6406 49.9395V43.5195H22.0006V48.8195H24.6106V49.9395H20.6406Z" fill="#F7F6F2"/>
<path d="M30.5605 49.9383L30.0905 48.4083H27.7505L27.2805 49.9383H25.8105L28.0805 43.4883H29.7505L32.0305 49.9383H30.5605ZM29.7705 47.2683C29.3405 45.8783 29.1005 45.0983 29.0405 44.9183C28.9905 44.7383 28.9505 44.5983 28.9205 44.4883C28.8205 44.8683 28.5505 45.7883 28.0905 47.2683H29.7705Z" fill="#F7F6F2"/>
<path d="M33.7402 43.5195H35.7402C36.6502 43.5195 37.3102 43.6495 37.7202 43.9095C38.1302 44.1695 38.3402 44.5795 38.3402 45.1495C38.3402 45.5295 38.2502 45.8495 38.0702 46.0995C37.8902 46.3495 37.6502 46.4895 37.3502 46.5395V46.5795C37.7602 46.6695 38.0502 46.8395 38.2302 47.0895C38.4102 47.3395 38.5002 47.6695 38.5002 48.0795C38.5002 48.6695 38.2902 49.1195 37.8702 49.4495C37.4502 49.7795 36.8702 49.9395 36.1502 49.9395H33.7502V43.5195H33.7402ZM35.1002 46.0595H35.8902C36.2602 46.0595 36.5302 45.9995 36.6902 45.8895C36.8602 45.7795 36.9402 45.5895 36.9402 45.3195C36.9402 45.0695 36.8502 44.8995 36.6702 44.7895C36.4902 44.6795 36.2102 44.6295 35.8202 44.6295H35.1002V46.0595ZM35.1002 47.1395V48.8095H35.9902C36.3702 48.8095 36.6402 48.7395 36.8202 48.5995C37.0002 48.4595 37.0902 48.2395 37.0902 47.9395C37.0902 47.4095 36.7102 47.1395 35.9502 47.1395H35.1002Z" fill="#F7F6F2"/>
<path d="M46.5204 46.7202C46.5204 47.7802 46.2604 48.6002 45.7304 49.1702C45.2004 49.7402 44.4504 50.0302 43.4604 50.0302C42.4804 50.0302 41.7204 49.7402 41.1904 49.1702C40.6604 48.6002 40.4004 47.7802 40.4004 46.7102C40.4004 45.6402 40.6604 44.8202 41.1904 44.2602C41.7204 43.7002 42.4804 43.4102 43.4604 43.4102C44.4404 43.4102 45.2004 43.6902 45.7204 44.2602C46.2604 44.8402 46.5204 45.6602 46.5204 46.7202ZM41.8304 46.7202C41.8304 47.4402 41.9704 47.9802 42.2404 48.3402C42.5104 48.7002 42.9204 48.8802 43.4604 48.8802C44.5504 48.8802 45.0904 48.1602 45.0904 46.7102C45.0904 45.2602 44.5504 44.5402 43.4704 44.5402C42.9304 44.5402 42.5204 44.7202 42.2404 45.0902C41.9704 45.4602 41.8304 46.0002 41.8304 46.7202Z" fill="#F7F6F2"/>
<path d="M50.11 47.4795V49.9395H48.75V43.5195H50.62C51.49 43.5195 52.14 43.6795 52.56 43.9995C52.98 44.3195 53.19 44.7995 53.19 45.4495C53.19 45.8295 53.09 46.1595 52.88 46.4595C52.67 46.7495 52.38 46.9795 52 47.1495C52.97 48.5895 53.6 49.5295 53.89 49.9495H52.38L50.85 47.4895H50.11V47.4795ZM50.11 46.3695H50.55C50.98 46.3695 51.3 46.2995 51.5 46.1495C51.71 46.0095 51.81 45.7795 51.81 45.4695C51.81 45.1695 51.71 44.9495 51.5 44.8195C51.29 44.6895 50.97 44.6295 50.53 44.6295H50.12V46.3695H50.11Z" fill="#F7F6F2"/>
<path d="M59.5215 49.9383L59.0515 48.4083H56.7115L56.2415 49.9383H54.7715L57.0415 43.4883H58.7115L60.9915 49.9383H59.5215ZM58.7315 47.2683C58.3015 45.8783 58.0615 45.0983 58.0015 44.9183C57.9515 44.7383 57.9115 44.5983 57.8815 44.4883C57.7815 44.8683 57.5115 45.7883 57.0515 47.2683H58.7315Z" fill="#F7F6F2"/>
<path d="M65.1801 49.9395H63.8201V44.6495H62.0801V43.5195H66.9301V44.6495H65.1801V49.9395Z" fill="#F7F6F2"/>
<path d="M74.6415 46.7202C74.6415 47.7802 74.3815 48.6002 73.8515 49.1702C73.3215 49.7402 72.5715 50.0302 71.5815 50.0302C70.6015 50.0302 69.8415 49.7402 69.3115 49.1702C68.7815 48.6002 68.5215 47.7802 68.5215 46.7102C68.5215 45.6402 68.7815 44.8202 69.3115 44.2602C69.8415 43.7002 70.6015 43.4102 71.5815 43.4102C72.5715 43.4102 73.3215 43.6902 73.8515 44.2602C74.3815 44.8402 74.6415 45.6602 74.6415 46.7202ZM69.9515 46.7202C69.9515 47.4402 70.0915 47.9802 70.3615 48.3402C70.6315 48.7002 71.0415 48.8802 71.5815 48.8802C72.6715 48.8802 73.2115 48.1602 73.2115 46.7102C73.2115 45.2602 72.6715 44.5402 71.5915 44.5402C71.0515 44.5402 70.6415 44.7202 70.3615 45.0902C70.0915 45.4602 69.9515 46.0002 69.9515 46.7202Z" fill="#F7F6F2"/>
<path d="M78.2409 47.4795V49.9395H76.8809V43.5195H78.7509C79.6209 43.5195 80.2709 43.6795 80.6909 43.9995C81.1109 44.3195 81.3209 44.7995 81.3209 45.4495C81.3209 45.8295 81.2209 46.1595 81.0109 46.4595C80.8009 46.7495 80.5109 46.9795 80.1309 47.1495C81.1009 48.5895 81.7309 49.5295 82.0209 49.9495H80.5009L78.9709 47.4895H78.2409V47.4795ZM78.2409 46.3695H78.6809C79.1109 46.3695 79.4309 46.2995 79.6309 46.1495C79.8409 46.0095 79.9409 45.7795 79.9409 45.4695C79.9409 45.1695 79.8409 44.9495 79.6309 44.8195C79.4209 44.6895 79.1009 44.6295 78.6609 44.6295H78.2509V46.3695H78.2409Z" fill="#F7F6F2"/>
<path d="M83.7207 49.9395V43.5195H85.0807V49.9395H83.7207Z" fill="#F7F6F2"/>
<path d="M93.4305 46.7202C93.4305 47.7802 93.1705 48.6002 92.6405 49.1702C92.1105 49.7402 91.3606 50.0302 90.3706 50.0302C89.3806 50.0302 88.6305 49.7402 88.1005 49.1702C87.5705 48.6002 87.3105 47.7802 87.3105 46.7102C87.3105 45.6402 87.5705 44.8202 88.1005 44.2602C88.6305 43.7002 89.3906 43.4102 90.3706 43.4102C91.3606 43.4102 92.1105 43.6902 92.6405 44.2602C93.1705 44.8402 93.4305 45.6602 93.4305 46.7202ZM88.7405 46.7202C88.7405 47.4402 88.8806 47.9802 89.1506 48.3402C89.4206 48.7002 89.8306 48.8802 90.3706 48.8802C91.4606 48.8802 92.0005 48.1602 92.0005 46.7102C92.0005 45.2602 91.4605 44.5402 90.3805 44.5402C89.8405 44.5402 89.4306 44.7202 89.1506 45.0902C88.8806 45.4602 88.7405 46.0002 88.7405 46.7202Z" fill="#F7F6F2"/>
<path d="M104.23 46.6695C104.23 47.7295 103.93 48.5395 103.33 49.0995C102.73 49.6595 101.86 49.9395 100.72 49.9395H98.9004V43.5195H100.92C101.97 43.5195 102.78 43.7995 103.36 44.3495C103.94 44.8995 104.23 45.6795 104.23 46.6695ZM102.81 46.7095C102.81 45.3295 102.2 44.6395 100.98 44.6395H100.26V48.8195H100.84C102.16 48.8195 102.81 48.1095 102.81 46.7095Z" fill="#F7F6F2"/>
<path d="M110.161 49.9395H106.461V43.5195H110.161V44.6395H107.821V46.0495H110.001V47.1695H107.831V48.8295H110.171V49.9395H110.161Z" fill="#F7F6F2"/>
<path d="M118.361 49.9395L116.811 44.8995H116.771C116.831 45.9295 116.851 46.6095 116.851 46.9495V49.9395H115.631V43.5195H117.481L119.001 48.4295H119.031L120.641 43.5195H122.491V49.9395H121.221V46.8995C121.221 46.7595 121.221 46.5895 121.231 46.3995C121.231 46.2095 121.251 45.7095 121.291 44.9095H121.251L119.591 49.9395H118.361Z" fill="#F7F6F2"/>
<path d="M128.721 49.9395H125.021V43.5195H128.721V44.6395H126.381V46.0495H128.561V47.1695H126.381V48.8295H128.721V49.9395Z" fill="#F7F6F2"/>
<path d="M136.291 46.6695C136.291 47.7295 135.991 48.5395 135.391 49.0995C134.791 49.6595 133.921 49.9395 132.781 49.9395H130.961V43.5195H132.981C134.031 43.5195 134.841 43.7995 135.421 44.3495C136.001 44.8995 136.291 45.6795 136.291 46.6695ZM134.881 46.7095C134.881 45.3295 134.271 44.6395 133.051 44.6395H132.321V48.8195H132.901C134.221 48.8195 134.881 48.1095 134.881 46.7095Z" fill="#F7F6F2"/>
<path d="M138.531 49.9395V43.5195H139.891V49.9395H138.531Z" fill="#F7F6F2"/>
<path d="M148.241 46.7202C148.241 47.7802 147.981 48.6002 147.451 49.1702C146.921 49.7402 146.171 50.0302 145.181 50.0302C144.191 50.0302 143.441 49.7402 142.911 49.1702C142.381 48.6002 142.121 47.7802 142.121 46.7102C142.121 45.6402 142.381 44.8202 142.911 44.2602C143.441 43.7002 144.201 43.4102 145.181 43.4102C146.171 43.4102 146.921 43.6902 147.451 44.2602C147.981 44.8402 148.241 45.6602 148.241 46.7202ZM143.551 46.7202C143.551 47.4402 143.691 47.9802 143.961 48.3402C144.231 48.7002 144.641 48.8802 145.181 48.8802C146.271 48.8802 146.811 48.1602 146.811 46.7102C146.811 45.2602 146.271 44.5402 145.191 44.5402C144.651 44.5402 144.241 44.7202 143.961 45.0902C143.691 45.4602 143.551 46.0002 143.551 46.7202Z" fill="#F7F6F2"/>
<path d="M154.26 48.1619C154.26 48.7419 154.05 49.2019 153.63 49.5319C153.21 49.8619 152.63 50.0319 151.89 50.0319C151.2 50.0319 150.6 49.9019 150.07 49.6419V48.3719C150.5 48.5619 150.87 48.7019 151.17 48.7819C151.47 48.8619 151.75 48.9019 151.99 48.9019C152.29 48.9019 152.52 48.8419 152.68 48.7319C152.84 48.6219 152.92 48.4519 152.92 48.2219C152.92 48.1019 152.88 47.9819 152.81 47.8819C152.74 47.7819 152.64 47.6919 152.5 47.6019C152.36 47.5119 152.09 47.3619 151.67 47.1619C151.28 46.9819 150.98 46.8019 150.79 46.6319C150.59 46.4619 150.44 46.2619 150.32 46.0419C150.2 45.8219 150.14 45.5519 150.14 45.2519C150.14 44.6819 150.33 44.2419 150.72 43.9119C151.11 43.5819 151.64 43.4219 152.32 43.4219C152.65 43.4219 152.97 43.4619 153.28 43.5419C153.58 43.6219 153.9 43.7319 154.23 43.8719L153.79 44.9319C153.45 44.7919 153.16 44.6919 152.94 44.6419C152.72 44.5819 152.5 44.5619 152.28 44.5619C152.02 44.5619 151.82 44.6219 151.69 44.7419C151.55 44.8619 151.48 45.0219 151.48 45.2119C151.48 45.3319 151.51 45.4319 151.56 45.5219C151.62 45.6119 151.7 45.7019 151.83 45.7819C151.95 45.8619 152.24 46.0119 152.69 46.2319C153.29 46.5219 153.7 46.8119 153.93 47.0919C154.15 47.3919 154.26 47.7419 154.26 48.1619Z" fill="#F7F6F2"/>
</g>
<defs>
<clipPath id="clip0_2052_242">
<rect width="173" height="51" fill="white"/>
</clipPath>
</defs>
</svg>
