<svg width="24" height="24" viewBox="0 0 24 24" fill="none" xmlns="http://www.w3.org/2000/svg">
<path d="M4 12.2461H20.1511" stroke="#202020" stroke-width="1.33009" stroke-linecap="round"/>
<path d="M15.9898 15.5354C16.2692 15.9757 16.409 16.5091 16.409 17.1357C16.409 17.7792 16.2311 18.3422 15.8755 18.8249C15.5284 19.3075 15.0246 19.68 14.3642 19.9425C13.7122 20.205 12.9332 20.3362 12.0273 20.3362C11.4092 20.3362 10.8038 20.2643 10.2111 20.1203C9.62687 19.9764 9.09768 19.7478 8.62353 19.4345C8.14937 19.1212 7.77259 18.719 7.49318 18.2279C7.21377 17.7284 7.07406 17.1272 7.07406 16.4245C7.07406 15.8998 6.6198 15.5503 6.09509 15.5503C5.57038 15.5503 5.08008 15.8998 5.08008 16.4245C5.08008 17.3728 5.27905 18.1983 5.677 18.9011C6.08342 19.5954 6.62108 20.1754 7.28997 20.641C7.96733 21.0983 8.71667 21.4412 9.53797 21.6698C10.3593 21.8899 11.189 22 12.0273 22C13.2889 22 14.398 21.8053 15.3548 21.4158C16.3201 21.0178 17.0736 20.4505 17.6155 19.7139C18.1574 18.9773 18.4283 18.1094 18.4283 17.1103C18.4283 16.1281 18.1997 15.2941 17.7425 14.6083C17.5572 14.3216 17.3329 14.0522 17.0697 13.8002H13.327C13.8036 13.9754 14.2128 14.1516 14.5547 14.3289C15.2405 14.6845 15.7189 15.0867 15.9898 15.5354Z" fill="#202020"/>
<path d="M6.40093 10.3536C6.89202 11.0225 7.97801 11.7796 8.87552 12.2453H14.4821C13.6522 11.9706 13.2614 11.7718 12.3194 11.5094C11.1933 11.2045 10.2873 10.8786 9.60147 10.5314C8.92411 10.1758 8.43302 9.78209 8.12821 9.35027C7.82339 8.91845 7.67099 8.42736 7.67099 7.87701C7.67099 7.27585 7.82763 6.73396 8.14091 6.25134C8.45419 5.76872 8.92411 5.3877 9.55067 5.10829C10.1772 4.82041 10.9647 4.67647 11.913 4.67647C12.8782 4.67647 13.6868 4.84581 14.3388 5.18449C14.9992 5.51471 15.4988 5.97193 15.8374 6.55615C16.1761 7.14037 16.3455 7.80504 16.3455 8.55013C16.3455 9.07484 16.7763 9.39532 17.301 9.39532C17.8258 9.39532 18.3394 9.07484 18.3394 8.55013C18.3394 7.55949 18.0812 6.64505 17.5647 5.80682C17.0567 4.96012 16.3201 4.28275 15.3548 3.77473C14.398 3.25824 13.2508 3 11.913 3C10.6768 3 9.58877 3.21168 8.64893 3.63503C7.70909 4.04991 6.97669 4.62567 6.45174 5.3623C5.92678 6.09893 5.6643 6.94563 5.6643 7.90241C5.6643 8.86765 5.90985 9.68472 6.40093 10.3536Z" fill="#202020"/>
</svg>
