<svg width="194" height="57" viewBox="0 0 194 57" fill="none" xmlns="http://www.w3.org/2000/svg">
<g clip-path="url(#clip0_2052_219)">
<mask id="mask0_2052_219" style="mask-type:luminance" maskUnits="userSpaceOnUse" x="0" y="0" width="194" height="57">
<path d="M194 0H0V56.0642H194V0Z" fill="white"/>
</mask>
<g mask="url(#mask0_2052_219)">
<path d="M56.647 45.922C56.647 46.0725 56.5218 46.1978 56.3715 46.1978H44.4985C44.3482 46.1978 44.104 46.2354 43.96 46.2793L31.5234 50.1782C31.3794 50.2284 31.1414 50.2284 30.9912 50.1782L18.5609 46.2793C18.4169 46.2354 18.1726 46.1978 18.0223 46.1978H6.14939C5.9991 46.1978 5.87385 46.0725 5.87385 45.922V6.15553C5.87385 6.00509 5.9991 5.87972 6.14939 5.87972H18.0223C18.1726 5.87972 18.4169 5.91733 18.5609 5.96121L30.9912 9.87894C31.1352 9.92282 31.3731 9.92282 31.5172 9.87894L43.9537 5.96121C44.0977 5.91733 44.342 5.87972 44.4923 5.87972H56.3652C56.5155 5.87972 56.6407 6.00509 56.6407 6.15553V45.922H56.647ZM61.9635 0H44.7741C44.4672 0 43.985 0.0752203 43.6907 0.169246L31.7864 3.89892C31.4984 3.99295 31.0162 3.99295 30.7281 3.89892L18.8302 0.169246C18.5358 0.0752203 18.0474 0 17.7405 0H0.557327C0.250484 0 0 0.250734 0 0.557884V51.5259C0 51.8331 0.250484 52.0838 0.557327 52.0838H17.7468C18.0536 52.0838 18.5421 52.159 18.8302 52.2531L30.7281 56.0015C31.0162 56.0956 31.4921 56.0956 31.7864 56.0015L43.6907 52.2531C43.985 52.159 44.4672 52.0838 44.7741 52.0838H61.9635C62.2704 52.0838 62.5209 51.8331 62.5209 51.5259V0.557884C62.5209 0.250734 62.2704 0 61.9635 0Z" fill="#F7F6F2"/>
<path d="M74.0678 10.5625V21.6324H79.8164V23.4941H71.9512V10.5625H74.0678Z" fill="#F7F6F2"/>
<path d="M83.473 19.3555C83.473 21.5745 83.6233 21.9882 86.3849 21.9882C87.2303 21.9882 88.489 21.9129 89.3531 21.8001V23.3609C88.5265 23.5302 87.0988 23.643 85.9152 23.643C81.8574 23.643 81.4629 22.3643 81.4629 18.7161C81.4629 15.2371 81.8574 13.7578 85.7837 13.7578C89.5786 13.7578 89.7289 15.2434 89.7289 18.7161V19.3555H83.473ZM83.473 17.9827H87.8314V17.9263C87.8314 15.6885 87.3618 15.4064 85.7274 15.4064C83.736 15.4064 83.4918 15.8389 83.473 17.9827Z" fill="#F7F6F2"/>
<path d="M91.959 18.6808C91.959 15.3523 92.4286 13.7539 95.8853 13.7539C96.7871 13.7539 97.8955 13.8667 98.553 14.0172V15.5968C97.9706 15.5028 97.0689 15.4276 96.3925 15.4276C94.2321 15.4276 93.9691 15.9917 93.9691 18.6996C93.9691 21.4828 94.2697 21.9717 96.4301 21.9717C97.0689 21.9717 97.9142 21.9153 98.6281 21.8025V23.3821C97.9706 23.5325 96.8622 23.6454 95.9417 23.6454C92.2408 23.6454 91.959 22.0658 91.959 18.6808Z" fill="#F7F6F2"/>
<path d="M99.9375 15.5779V13.9042H101.854V11.1211H103.845V13.9042H106.081V15.5779H103.845V23.4886H101.854V15.5779H99.9375Z" fill="#F7F6F2"/>
<path d="M108.033 19.9027V13.9102H110.025V19.1192C110.025 21.639 110.269 21.8647 112.072 21.8647C114.082 21.8647 114.27 20.8492 114.27 18.8559V13.9102H116.262V23.4945H114.439L114.364 22.2157H114.233C113.782 23.1372 112.899 23.6449 111.189 23.6449C108.478 23.6449 108.033 22.385 108.033 19.9027Z" fill="#F7F6F2"/>
<path d="M121.059 13.9083L121.134 15.6383H121.284C121.754 14.1339 122.862 13.7578 124.421 13.7578V15.7135C121.866 15.7135 121.228 16.7666 121.228 19.4181V23.4988H119.236V13.9083H121.059Z" fill="#F7F6F2"/>
<path d="M125.85 20.8411C125.85 18.6597 126.507 17.8699 128.818 17.8699C129.325 17.8699 130.978 17.9075 132.068 17.9451V17.4938C132.068 15.538 131.673 15.4252 129.325 15.4252C128.498 15.4252 127.052 15.5192 126.47 15.5944V14.0399C127.522 13.8518 128.78 13.7578 130.02 13.7578C133.59 13.7578 134.059 14.8297 134.059 17.5564V23.4988H132.237L132.162 22.2577H132.049C131.429 23.4988 129.964 23.6493 128.837 23.6493C126.864 23.643 125.85 22.966 125.85 20.8411ZM131.723 21.2924C131.949 20.8787 132.062 20.3333 132.062 19.5811V19.2426H129.319C128.06 19.2426 127.797 19.4307 127.797 20.653C127.797 21.8189 128.079 22.0258 129.732 22.0258C130.671 22.0258 131.385 21.8753 131.723 21.2924Z" fill="#F7F6F2"/>
<path d="M144.698 10.5625L148.511 19.9776H148.605L152.419 10.5625H155.293V23.4941H153.246V13.8346H153.17L149.263 23.4941H147.76L143.871 13.8346H143.796V23.4941H141.805V10.5625H144.698Z" fill="#F7F6F2"/>
<path d="M158.5 19.9027V13.9102H160.491V19.1192C160.491 21.639 160.736 21.8647 162.539 21.8647C164.549 21.8647 164.737 20.8492 164.737 18.8559V13.9102H166.728V23.4945H164.906L164.831 22.2157H164.693C164.242 23.1372 163.359 23.6449 161.65 23.6449C158.951 23.6449 158.5 22.385 158.5 19.9027Z" fill="#F7F6F2"/>
<path d="M171.544 13.9083L171.601 15.187H171.751C172.183 14.2655 173.085 13.7578 174.794 13.7578C177.499 13.7578 177.932 15.0178 177.932 17.5V23.4926H175.94V18.2836C175.94 15.7637 175.715 15.538 173.911 15.538C171.882 15.538 171.694 16.5535 171.694 18.5468V23.4926H169.703V13.9083H171.544Z" fill="#F7F6F2"/>
<path d="M180.535 18.7168C180.535 14.8805 181.381 13.7585 183.898 13.7585C185.269 13.7585 186.303 14.0218 186.866 15.0372H186.979V9.52734H188.97V23.4933H187.148L187.073 22.2333H186.96C186.378 23.418 185.157 23.6437 183.954 23.6437C181.399 23.6437 180.535 22.553 180.535 18.7168ZM186.716 20.9734C186.96 20.4092 186.979 19.6758 186.979 18.6603C186.979 17.7201 186.96 16.9867 186.735 16.4978C186.453 15.8208 185.87 15.5387 184.762 15.5387C182.79 15.5387 182.545 15.8772 182.545 18.698C182.545 21.5563 182.79 21.876 184.781 21.876C185.87 21.876 186.453 21.5939 186.716 20.9734Z" fill="#F7F6F2"/>
<path d="M193.999 9.52734V11.4831H191.914V9.52734H193.999ZM193.943 13.9089V23.4932H191.952V13.9089H193.943Z" fill="#F7F6F2"/>
<path d="M72.377 37.3638V31.3086H73.5605V37.8716C73.5605 40.8428 74.1429 41.5197 76.7729 41.5197C79.3842 41.5197 79.9478 40.8804 79.9478 37.8716V31.3086H81.1689V37.3638C81.1689 41.4257 80.3048 42.4412 76.7729 42.4412C73.2411 42.4412 72.377 41.4257 72.377 37.3638Z" fill="#F7F6F2"/>
<path d="M85.4844 31.2969H86.6303L93.4623 40.3923H93.4811V31.2969H94.5707V42.2916H93.4999L86.6116 33.1022H86.5928V42.2916H85.4844V31.2969Z" fill="#F7F6F2"/>
<path d="M98.471 42.1909V41.2319C100.181 41.4011 101.063 41.4763 102.491 41.4763C104.445 41.4763 105.253 41.1943 105.253 39.1821C105.253 37.6589 104.746 37.4897 103.581 37.358L100.556 37.0383C98.734 36.8503 98.1328 36.0981 98.1328 34.274C98.1328 31.4344 99.8799 31.1523 102.435 31.1523C103.487 31.1523 104.877 31.284 105.835 31.4156V32.3559C104.614 32.1678 103.543 32.0738 102.247 32.0738C100.537 32.0738 99.3163 32.1678 99.3163 34.1424C99.3163 35.722 99.7672 35.9288 100.97 36.0417L104.05 36.3425C105.685 36.493 106.474 37.0759 106.474 39.1633C106.474 41.9841 104.971 42.4354 102.435 42.4354C101.251 42.4417 99.5606 42.31 98.471 42.1909Z" fill="#F7F6F2"/>
<path d="M112.817 31.3086H114.189L118.885 42.2845H117.627L116.274 39.0876H110.732L109.379 42.2845H108.158L112.817 31.3086ZM115.879 38.0972L113.512 32.4996H113.494L111.126 38.0972H115.879Z" fill="#F7F6F2"/>
<path d="M121.322 31.3086H122.938L126.883 40.8365H126.921L130.922 31.3086H132.519V42.2845H131.354V33.0387H131.317L127.371 42.2845H126.301L122.543 33.0387H122.525V42.2845H121.322V31.3086Z" fill="#F7F6F2"/>
</g>
</g>
<defs>
<clipPath id="clip0_2052_219">
<rect width="194" height="57" fill="white"/>
</clipPath>
</defs>
</svg>
