<svg width="177" height="48" viewBox="0 0 177 48" fill="none" xmlns="http://www.w3.org/2000/svg">
<path d="M34.269 1.12H39.322V47H33.866L5.067 8.498V47H0.0140002V1.12H5.47L34.269 39.622V1.12ZM46.7078 42.722H73.7398V47H41.4378V1.12H73.4298V5.398H46.7078V21.332H70.2678V25.579H46.7078V42.722ZM158.596 47.589C156.385 47.589 154.163 47.4133 151.931 47.062C149.699 46.7107 147.56 46.2043 145.514 45.543V41.079C147.643 41.7817 149.854 42.319 152.148 42.691C154.463 43.0423 156.643 43.218 158.689 43.218C167.08 43.218 171.275 40.3763 171.275 34.693C171.275 33.1223 170.934 31.8307 170.252 30.818C169.57 29.7847 168.485 28.9373 166.997 28.276C165.53 27.594 163.525 27.005 160.983 26.509L158.193 25.982C153.543 25.0727 150.144 23.6053 147.994 21.58C145.845 19.534 144.77 16.8163 144.77 13.427C144.77 10.7403 145.442 8.436 146.785 6.514C148.129 4.592 150.133 3.11433 152.799 2.081C155.486 1.04766 158.793 0.530998 162.719 0.530998C166.915 0.530998 170.831 1.06833 174.468 2.143V6.607C170.748 5.47033 166.842 4.902 162.75 4.902C158.472 4.902 155.29 5.615 153.202 7.041C151.136 8.467 150.102 10.5233 150.102 13.21C150.102 14.76 150.402 16.0517 151.001 17.085C151.601 18.1183 152.582 18.976 153.946 19.658C155.31 20.34 157.16 20.9187 159.495 21.394L162.285 21.921C165.695 22.5823 168.444 23.471 170.531 24.587C172.639 25.703 174.169 27.067 175.119 28.679C176.091 30.291 176.576 32.213 176.576 34.445C176.576 37.2143 175.874 39.591 174.468 41.575C173.063 43.5383 171.007 45.0367 168.299 46.07C165.613 47.0827 162.378 47.589 158.596 47.589Z" fill="#202020"/>
<path d="M141.979 1.12H147.156L132.431 47H125.549L112.25 6.359L98.92 47H92.038L77.251 1.12H82.738L95.758 42.35L109.212 1.12H115.443L128.835 42.536L141.979 1.12Z" fill="#0C06FE"/>
</svg>
