<svg width="18" height="18" viewBox="0 0 18 18" fill="none" xmlns="http://www.w3.org/2000/svg">
<rect x="0.391304" y="0.391304" width="17.2174" height="17.2174" stroke="#F7F6F2" stroke-width="0.782609"/>
<circle cx="9" cy="9" r="9" fill="#0C06FE"/>
<path d="M7.33754 12.421L11.4174 8.34111L9.47954 6.40326L5.39969 10.4831C5.34352 10.5393 5.30362 10.6097 5.28423 10.6868L4.9089 12.5973C4.87221 12.7841 5.03657 12.9484 5.22332 12.9117L7.1334 12.5364C7.21067 12.5171 7.28135 12.4772 7.33754 12.421ZM12.7345 7.02404C12.8991 6.85938 12.9916 6.63608 12.9916 6.40326C12.9916 6.17043 12.8991 5.94713 12.7345 5.78247L12.0382 5.08618C11.8735 4.92157 11.6502 4.8291 11.4174 4.8291C11.1846 4.8291 10.9613 4.92157 10.7966 5.08618L10.1003 5.78247L12.0382 7.72033L12.7345 7.02404Z" fill="#F7F6F2"/>
</svg>
