<svg width="201" height="201" viewBox="0 0 201 201" fill="none" xmlns="http://www.w3.org/2000/svg">
<g clip-path="url(#clip0_1666_217)">
<path d="M158.214 91.9666H108.529V42.2809C108.529 37.7099 104.819 34 100.248 34C95.6765 34 91.9666 37.7099 91.9666 42.2809V91.9666H42.2809C37.7099 91.9666 34 95.6765 34 100.248C34 104.819 37.7099 108.529 42.2809 108.529H91.9666V158.214C91.9666 162.785 95.6765 166.495 100.248 166.495C104.819 166.495 108.529 162.785 108.529 158.214V108.529H158.214C162.785 108.529 166.495 104.819 166.495 100.248C166.495 95.6765 162.785 91.9666 158.214 91.9666Z" fill="#8D8D8D" fill-opacity="0.909804"/>
<path d="M100.5 0C44.9957 0 0 44.9957 0 100.5C0 156.007 44.9957 201 100.5 201C156.007 201 201 156.007 201 100.5C201 44.9957 156.007 0 100.5 0ZM100.5 188.635C52.0119 188.635 12.5625 148.988 12.5625 100.5C12.5625 52.0115 52.0119 12.5621 100.5 12.5621C148.988 12.5621 188.438 52.0117 188.438 100.5C188.438 148.988 148.988 188.635 100.5 188.635Z" fill="#8D8D8D" fill-opacity="0.909804"/>
</g>
<defs>
<clipPath id="clip0_1666_217">
<rect width="201" height="201" fill="white"/>
</clipPath>
</defs>
</svg>
